<?xml version="1.0" encoding="UTF-8" standalone="no"?>
<!-- Created with Inkscape (http://www.inkscape.org/) -->

<svg
   xmlns:dc="http://purl.org/dc/elements/1.1/"
   xmlns:cc="http://creativecommons.org/ns#"
   xmlns:rdf="http://www.w3.org/1999/02/22-rdf-syntax-ns#"
   xmlns:svg="http://www.w3.org/2000/svg"
   xmlns="http://www.w3.org/2000/svg"
   xmlns:sodipodi="http://sodipodi.sourceforge.net/DTD/sodipodi-0.dtd"
   xmlns:inkscape="http://www.inkscape.org/namespaces/inkscape"
   width="7920.3438"
   height="4849.6562"
   id="svg2"
   version="1.1"
   inkscape:version="0.91 r13725"
   sodipodi:docname="break those chains_edited.svg"
   inkscape:export-filename="/Users/egmontmika/Documents/Blog/BlogEgmontMika.com/Facebook/chainsBlog.png"
   inkscape:export-xdpi="67"
   inkscape:export-ydpi="67">
  <defs
     id="defs4" />
  <sodipodi:namedview
     id="base"
     pagecolor="#ffffff"
     bordercolor="#666666"
     borderopacity="1.0"
     inkscape:pageopacity="0.0"
     inkscape:pageshadow="2"
     inkscape:zoom="0.061871843"
     inkscape:cx="5644.7137"
     inkscape:cy="4041.484"
     inkscape:document-units="px"
     inkscape:current-layer="layer1"
     showgrid="false"
     inkscape:window-width="1280"
     inkscape:window-height="714"
     inkscape:window-x="0"
     inkscape:window-y="1"
     inkscape:window-maximized="1"
     showborder="true"
     borderlayer="true"
     fit-margin-top="0"
     fit-margin-left="0"
     fit-margin-right="0"
     fit-margin-bottom="0"
     inkscape:showpageshadow="false" />
  <metadata
     id="metadata7">
    <rdf:RDF>
      <cc:Work
         rdf:about="">
        <dc:format>image/svg+xml</dc:format>
        <dc:type
           rdf:resource="http://purl.org/dc/dcmitype/StillImage" />
        <dc:title></dc:title>
      </cc:Work>
    </rdf:RDF>
  </metadata>
  <g
     inkscape:label="Layer 1"
     inkscape:groupmode="layer"
     id="layer1"
     transform="translate(547.8125,821.53125)">
    <rect
       style="color:#000000;fill:#6c6b6c;fill-opacity:0.44827586;fill-rule:nonzero;stroke:#cc0303;stroke-width:3;stroke-linejoin:miter;stroke-miterlimit:4;stroke-opacity:1;stroke-dasharray:none;stroke-dashoffset:0;marker:none;visibility:visible;display:inline;overflow:visible;enable-background:accumulate"
       id="rect6683"
       width="9552.0029"
       height="5608.3667"
       x="-1145.8228"
       y="-1305.4805" />
    <g
       id="g4035"
       transform="matrix(0.38323051,1.475816,1.8446403,-0.46972209,-240.86618,1052.7563)"
       style="fill:#280b0b">
      <path
         inkscape:connector-curvature="0"
         d="m 778.44846,-376.87649 c -4.12618,4.71357 -29.02617,13.94908 -36.31875,9.41979 1.48814,-2.61888 3.55443,-5.03947 4.46432,-7.85674 0.24969,-0.77166 -1.24576,-1.34564 -1.23315,-2.14814 0.021,-1.13438 0.92226,-2.1193 1.31726,-3.199 5.33567,-14.59667 0.19126,0.31656 -0.89304,3.9992 0.32157,10.68313 -6.65439,20.71411 -7.96043,31.11799 -0.0563,0.46422 0.79632,0.75183 0.78619,1.21901 -0.10131,4.64235 -0.74344,9.26328 -1.11461,13.895 -4.22404,20.17708 -1.13441,40.64964 -1.99966,60.98516 -2.60703,22.39258 2.43922,45.31888 10.18057,66.62259 9.0776,15.50849 17.89993,31.42259 27.76679,46.59034 3.47783,5.34618 7.8817,10.21258 11.13321,15.66837 4.24351,7.11999 7.53496,14.65071 11.30237,21.976 7.91276,17.26065 21.05812,31.823591 32.59261,47.175612 4.79702,6.384662 8.89004,13.179602 13.92616,19.419436 9.29279,11.514062 20.24866,21.910536 30.4138,32.836353 41.97291,35.669597 80.15706,74.510508 121.70671,110.55591 38.31079,39.192809 86.36669,68.744789 136.71529,94.623389 38.9061,19.59151 77.2041,39.88566 117.1572,57.81511 8.4965,3.81287 16.7187,8.1788 25.5775,11.28468 7.4153,2.59972 15.3547,3.83833 23.0321,5.75757 7.7137,1.79039 15.3295,3.94817 23.1409,5.37105 22.8881,4.16925 12.7776,1.56457 34.2034,0.70127 7.1314,-0.28765 28.5549,-0.11825 21.4167,-0.0297 -59.6514,0.75379 -56.5371,0.97202 -21.0167,-1.0251 35.1243,-0.21723 69.1264,-4.20224 102,-15.15137 4.452,-1.88662 9.3135,-3.15697 13.356,-5.65978 3.6979,-2.2896 6.4207,-5.60981 9.5238,-8.50593 5.3596,-5.00207 10.6733,-10.04443 15.861,-15.18562 14.88,-14.7468 29.5123,-29.74296 43.995,-44.79427 28.9528,-31.10042 45.5124,-69.20589 64.4717,-105.414244 21.7862,-34.393762 25.4983,-73.6654499 31.5831,-111.897468 3.1011,-36.375981 -2.6492,-73.475698 -15.7879,-108.023808 -17.4428,-36.61678 -26.5898,-75.69486 -41.6155,-112.95823 -10.4383,-22.537 -17.2891,-46.09462 -27.8238,-68.5517 -5.1681,-11.01674 -0.5883,-10.52806 -6.7428,-10.50616 -2.0992,-0.86685 -4.3105,-1.54884 -6.2977,-2.60149 -29.2293,-15.48287 21.6284,9.34817 -17.3306,-10.47454 -12.9121,-6.56982 -7.474,-1.93451 -23.1542,-8.80407 -5.4629,-2.39342 -10.5295,-5.43373 -15.7944,-8.15062 -6.3586,-2.98882 -12.8794,-5.72376 -19.076,-8.96658 -31.1371,-16.29483 -12.8405,-8.5834 -37.8644,-20.72122 -17.3177,-8.40021 -34.9976,-16.28916 -52.4003,-24.56159 -5.2385,-2.46782 -10.4769,-4.93564 -15.7154,-7.40335 -14.5093,-9.47802 137.4881,-190.42683 151.9974,-180.94885 l 0,0 c 6.613,2.70758 13.226,5.4152 19.8389,8.12282 41.147,18.14056 80.5356,39.08805 118.9384,61.41316 48.1259,25.46526 91.5619,58.85853 121.8508,100.84818 5.9555,9.1163 12.4182,17.98906 17.8663,27.34887 16.426,28.21969 22.0914,60.1874 37.196,88.93514 17.6,42.01396 43.7416,81.25974 56.4157,124.94406 8.1517,29.63865 16.1901,58.90594 19.7248,89.32118 2.7885,23.994954 1.9686,31.779558 2.7183,56.265933 0.3061,9.994684 0.793,19.984476 1.19,29.976677 -0.4161,10.624892 -0.1013,21.2920423 -1.2475,31.8747499 -5.7742,53.0955831 -24.4754,105.4046401 -50.106,153.4373201 -27.2131,46.44088 -54.6609,92.75079 -83.5814,138.39135 -12.6929,16.49722 -25.3403,33.86579 -40.1613,48.96997 -29.3648,29.92578 -66.8163,52.44591 -99.6327,79.13254 -25.8469,16.44941 -34.4215,23.4248 -64.2367,35.74166 -41.7676,17.25451 -88.1958,25.05631 -133.6007,29.95822 -53.1569,1.53491 -107.0157,5.54357 -160.042,0.85796 -40.5848,-3.58641 -80.6394,-11.70452 -119.04,-23.74767 -20.5495,-7.73282 -55.1968,-20.42363 -75.6421,-29.40949 -47.5059,-20.87913 -92.9718,-45.84636 -136.33444,-72.73291 -26.54335,-17.51558 -40.17615,-25.652 -64.54254,-44.97276 C 842.14479,294.84494 812.75745,264.63162 778.54241,238.96505 729.99089,195.40223 679.48292,153.04045 641.19857,101.67494 607.59976,57.872816 576.30204,12.827657 550.64656,-35.028172 527.734,-76.307434 510.12714,-119.60146 496.13713,-163.84538 c -3.75203,-20.1171 -7.3115,-40.83903 -8.25704,-61.25554 -1.60465,-34.65136 3.58544,7.16948 0.27786,-26.9777 -0.47353,-4.89001 -1.45812,-9.73112 -2.18706,-14.59674 -1.87246,-32.96383 1.84266,-66.00321 11.97438,-97.85876 8.0754,-15.12805 9.43756,-32.57261 12.81514,-48.03725 7.95236,-36.59754 21.96655,-71.54533 48.88464,-100.90051 6.56836,-5.63925 12.73779,-11.66416 19.70518,-16.91777 31.45392,-23.7175 67.91441,-36.2147 108.66779,-40.46401 15.55386,-5.63898 105.98493,188.33704 90.43107,193.97599 z"
         id="path3188"
         style="fill:#280b0b;fill-opacity:0.95294118;fill-rule:evenodd;stroke:none" />
      <path
         inkscape:connector-curvature="0"
         d="m 259.77192,803.22722 c -0.11349,-4.00458 -1.19783,-8.08019 -0.33964,-12.01375 7.37702,-33.80014 38.12891,-71.2632 61.34899,-98.31896 14.8525,-15.71456 13.76,-15.34798 32.04082,-30.84988 5.1819,-4.3941 11.34591,-7.85247 16.34075,-12.41179 16.70155,-15.24523 5.13857,-6.76336 15.8339,-14.24911 11.77938,-17.97449 22.55719,-36.42973 37.55395,-52.59352 17.59719,-20.67363 32.09786,-42.9054 46.45837,-65.44203 8.61055,-12.92023 17.8407,-25.8686 28.00686,-37.89469 6.34026,-7.50018 13.24952,-13.21512 18.58603,-21.33052 12.15963,-19.78968 28.74007,-36.99577 43.19958,-55.37899 15.43856,-27.64942 38.83242,-50.54613 63.37766,-72.07423 17.52847,-20.45392 39.08572,-37.76914 60.57156,-54.89231 18.15638,-16.14096 35.69094,-32.78153 54.63713,-48.31152 17.77723,-13.95085 31.36754,-33.23714 54.18959,-41.09844 1.11683,-0.71513 2.42165,-1.24566 3.34979,-2.14658 10.57894,-10.26833 11.66362,-13.25637 21.68067,-23.59835 6.42358,-6.63202 14.05231,-12.68288 20.89499,-18.98173 13.34536,-10.10923 23.90933,-22.77695 37.68779,-32.47185 1.33395,-0.93829 3.09834,-1.27265 4.57264,-2.03082 7.40132,-3.80634 7.688,-5.95426 15.22464,-13.454727 19.70471,-18.113353 41.19551,-34.705104 64.19873,-49.474254 17.25629,-10.523027 34.71476,-20.774265 51.84968,-31.450238 21.2332,-12.89810086 42.4565,-26.393121 66.1773,-35.548975 28.8129,-13.661126 58.3592,-25.668278 89.3266,-34.990757 21.0204,-3.715372 41.8289,-7.81133 62.7635,-12.41817 44.6582,-10.983422 91.2259,-3.355212 136.8729,-2.449472 2.9267,-0.351042 5.8411,-0.79546 8.7802,-1.054608 7.0721,-0.622905 31.8796,-1.265419 20.0702,-1.658868 -95.5487,-3.183138 -49.7076,-0.383848 -28.6811,1.187315 50.9235,3.977227 -119.6673,-9.233402 92.6946,4.186109 5.6995,0.359939 11.4551,1.162257 16.83,2.872501 19.9217,6.33892 37.9467,17.2915 56.2041,26.544289 29.8361,17.413196 54.5973,40.47408931 77.3894,64.561344 19.008,25.211701 45.3228,44.354603 66.9098,67.628049 36.7492,30.848792 51.2763,72.964882 68.0208,113.654642 12.9588,41.44155 24.6096,83.455 26.6329,126.52287 -0.2262,22.02322 2.9982,44.1118 2.973,66.10915 -0.01,7.01754 -1.1987,13.99964 -1.4465,21.0138 -2.5,70.76915 2.7106,-27.53958 -1.153,40.57774 -4.8328,53.37567 -21.1746,104.13833 -46.2317,152.66773 -22.2915,39.4782 -44.3743,79.00933 -67.172,118.28451 -18.0499,28.91854 -42.1044,54.0868 -64.1056,80.55651 -11.0537,13.2987 -21.2663,27.12567 -32.0033,40.62466 -19.7532,21.52461 -36.8175,44.61972 -57.3183,65.63482 -7.061,7.23813 -14.9001,13.87338 -21.8448,21.19859 -60.8643,64.20099 32.4849,-29.00673 -39.0402,41.51109 -6.4804,6.27553 -12.8747,12.62098 -19.4409,18.82667 -6.4528,6.09843 -13.3381,11.84183 -19.6132,18.08273 -20.0906,19.9813 -37.1323,42.2395 -56.9502,62.4274 -8.3146,8.4698 -17.1942,16.4952 -25.7912,24.7429 -50.3807,42.5462 -106.8088,79.2985 -166.3075,111.2733 -49.1113,23.9851 -97.7372,48.5105 -148.437,69.8753 -36.81358,14.5212 -72.06261,32.4844 -109.71585,45.3542 -31.42718,10.7419 -40.60289,11.9086 -72.47014,18.9953 -55.96197,9.3019 -111.94179,16.7035 -168.96595,16.5023 -42.06707,7.5149 -80.93222,-4.3458 -121.73067,-6.519 -10.83304,-0.5773 -21.79168,1.1835 -32.55823,-0.019 -7.71873,-0.8629 -15.20214,-2.9298 -22.80334,-4.3946 -29.33593,-9.059 -59.62341,-15.0166 -89.34291,-22.8387 -34.72926,-11.4181 -62.25035,-32.2556 -88.57672,-54.508 -18.60369,-16.2236 -34.33754,-36.4509 -43.22901,-58.3132 -2.57512,-6.3318 -7.10485,-22.3178 -9.6714,-31.2049 -0.29593,0.3162 -0.59051,0.6338 -0.88631,0.9502 -4.78542,-14.2977 224.50558,-73.9777 229.29096,-59.68 l 0,0 c 1.7625,5.4197 3.52482,10.8394 5.28728,16.2589 0.56798,2.1236 3.2722,8.0576 1.70344,6.3705 -3.00115,-3.2278 -2.29584,-8.1622 -4.36827,-11.915 -0.94592,-1.713 -3.32326,-3.0842 -3.17185,-4.9849 0.1013,-1.245 2.25948,1.5038 3.38926,2.2557 1.3867,0.7151 10.38637,5.3703 10.58196,5.3961 1.05841,0.1397 -0.85365,-1.731 -1.28106,-2.5965 0.613,-0.3462 1.11238,-1.0833 1.83816,-1.0376 12.76507,0.8044 3.88709,2.6711 10.5282,0.9582 21.17835,4.0824 41.64125,10.732 63.59023,7.3491 16.34505,-1.5687 31.5474,1.4291 47.79964,2.6869 21.9301,1.6971 80.07437,-1.0227 -22.06172,-1.1695 39.29417,-1.3687 79.12412,-4.8251 116.56096,-15.7775 25.38553,-4.9629 50.88263,-9.1338 75.82852,-15.7033 40.08191,-10.5556 14.06358,-4.6179 54.83583,-17.4329 7.3674,-2.3156 14.93632,-4.0986 22.40444,-6.1479 43.17705,-13.9736 80.77463,-37.4766 120.48672,-57.4779 41.12793,-22.3301 -6.29277,3.9471 41.14293,-24.3818 6.9528,-4.1523 14.463,-7.5659 21.2776,-11.8928 21.4645,-13.6288 40.2012,-30.34981 61.6095,-44.04923 42.2896,-33.62896 80.769,-70.41414 114.6119,-110.86028 37.3861,-40.11526 76.8035,-78.71804 114.8448,-118.33288 11.5521,-11.89991 23.9173,-23.19063 35.0884,-35.37026 19.2101,-20.94456 33.9879,-45.01595 53.9363,-65.52076 3.6871,-3.72372 7.9088,-7.08338 11.0614,-11.1711 9.8958,-12.83146 12.4349,-22.44355 20.7887,-36.24217 2.7251,-4.5013 6.5292,-8.44609 9.2994,-12.9259 7.8467,-12.68959 10.3898,-20.92643 16.0714,-34.92411 13.0235,-25.04448 31.2672,-50.19101 31.8109,-78.34676 0.1698,-6.65778 0.3397,-13.31557 0.5095,-19.97335 0.5567,-6.56964 1.3853,-13.12563 1.6693,-19.70876 0.2518,-5.84724 -0.3867,-11.70986 -0.056,-17.55425 0.8593,-15.40825 4.1556,-30.70834 0.8391,-46.17027 -4.642,-26.07255 -4.3457,-52.5953 -9.117,-78.47305 -9.8399,-21.67537 -29.0348,-38.61961 -43.9599,-57.60431 -6.7898,-7.5236 -19.087,-20.90422 -24.8072,-28.41085 -9.8212,-12.88857 -15.9771,-27.96636 -28.3158,-39.25489 -8.2876,-7.61524 -17.2774,-15.42616 -28.0751,-20.12197 -2.4064,-1.01038 -7.3573,-3.47672 -5.2927,-0.46417 1.2019,1.7535 4.9463,2.00323 5.2601,4.03346 0.216,1.39582 -6.3335,-0.66454 -4.7363,-0.64471 21.4923,0.27172 42.9994,0.39972 64.4638,1.39958 3.1423,0.14568 -6.2309,0.77863 -9.3464,1.16822 -46.6368,5.05089 -94.3569,4.68439 -140.6248,-2.6284 -15.8968,-1.87283 -5.3353,-0.55544 -19.5761,-2.48658 -1.7888,-0.24317 -7.1801,-0.70916 -5.3702,-0.7052 12.5691,0.0297 56.1781,16.56973 60.4675,-2.57187 -13.2082,-0.39375 -27.0828,7.85844 -39.5969,10.42235 -2.3578,0.48304 -4.8815,-0.45625 -7.2614,-0.0693 -4.1711,0.6824 -8.1214,2.16541 -12.1821,3.24812 -0.6928,-1.17801 -1.748,-3.94272 -4.2185,-3.34572 -3.8371,0.92738 -6.9994,3.38064 -10.7103,4.64554 -1.307,0.44534 -2.8415,0.0497 -4.1754,0.42847 -7.5128,2.13109 -10.1129,3.92348 -16.7839,7.40773 -7.2138,3.97574 -17.2828,10.20483 -25.8159,12.74964 -1.767,0.52667 -3.9042,-0.41261 -5.5855,0.30063 -9.8694,4.18144 -19.0945,13.947 -31.0336,13.25578 -7.817,2.10588 -1.2219,-0.0297 -13.9443,7.8828 -9.3884,5.83656 -19.9034,10.63163 -28.64,17.75827 -14.4332,8.21312 -26.0764,19.46873 -40.0279,28.47513 -11.6324,7.15291 -18.2952,18.92386 -28.4036,27.68953 -7.8476,6.80528 -7.1983,3.9065 -14.818,8.95193 -1.2357,0.8183 -2.1386,1.96743 -3.2079,2.95117 -10.9114,11.65362 -21.9838,24.94806 -35.3152,34.55037 -2.6296,1.89404 -5.94103,2.92288 -9.064,4.09752 -1.0561,0.39675 -2.56517,-0.13011 -3.37973,0.5832 -3.49948,3.06504 -6.04194,6.87631 -9.06289,10.31455 -5.49229,5.94088 -15.70392,17.3166 -21.88172,22.64899 -9.56938,8.25971 -23.94927,12.3487 -31.00204,23.24131 -9.18223,8.47137 -18.38687,16.89723 -28.16352,24.84405 -6.13522,4.98679 -12.952,9.30075 -19.01365,14.35709 -2.43318,2.02963 -4.46071,4.4066 -6.69118,6.60989 -18.33222,18.81944 -36.18629,38.15584 -57.56292,54.4215 -12.467,11.71194 -24.72314,24.28928 -40.61219,32.44824 -2.46755,4.54494 -11.42721,21.12064 -13.05582,23.703 -4.85193,7.6936 -10.96092,14.71618 -16.43593,22.0775 -2.39353,3.21824 -4.40345,6.68495 -7.17412,9.65861 -1.15959,1.24459 -2.9674,1.87888 -4.45112,2.81824 -15.45658,23.02908 -30.39265,46.24489 -47.82586,68.03343 -15.5209,16.31989 2.3929,-3.48714 -15.22981,20.59726 -2.03669,2.78343 -5.08551,4.92115 -7.10081,7.71658 -8.34497,11.57508 -13.1032,25.13812 -23.67344,35.45701 -2.75831,4.60595 -5.20216,9.36922 -8.27481,13.81778 -1.63921,2.37307 -16.12579,19.18223 -17.21085,20.63185 -4.11,5.49086 -7.27038,11.52092 -11.59051,16.88485 -8.06099,10.00855 -19.77198,17.51851 -26.07962,28.7646 -3.7775,3.83996 -7.17547,7.99809 -11.33251,11.51996 -1.84535,1.56334 -4.63246,2.05617 -6.50614,3.59297 -13.20047,10.82614 -12.87688,11.89602 -19.86487,21.75333 -1.49196,2.60271 -11.13624,19.41891 -11.31564,19.77122 -3.22428,6.33217 -5.56249,13.01038 -9.04054,19.2372 -11.01349,19.71777 -26.80052,37.18486 -42.449,54.10152 -7.22856,13.6791 -226.59881,-76.47019 -219.37021,-90.14929 z"
         id="path3190"
         style="fill:#280b0b;fill-opacity:0.95294118;fill-rule:evenodd;stroke:none" />
      <path
         inkscape:connector-curvature="0"
         d="m 789.02942,773.5021 c 37.55046,-10.66059 77.68357,-10.43218 116.28596,-4.97375 18.67662,2.87602 36.11959,9.94301 54.42448,13.98114 19.33199,4.26469 3.81761,-0.6258 20.26782,2.25553 6.10571,1.06936 12.08217,2.64879 18.12314,3.97318 16.12408,2.04479 30.72278,9.45852 46.44258,12.61716 2.6682,0.53587 5.5494,-0.29581 8.2028,0.29507 42.6622,9.49781 -2.911,2.43979 26.7972,6.67116 28.8962,10.87118 57.5042,21.85635 86.955,31.49465 23.0109,14.73612 53.9594,20.31747 76.4348,35.39184 7.3699,4.94294 13.7745,10.91488 20.6618,16.37223 22.282,15.18358 37.8459,35.74855 55.6684,54.4956 23.7783,25.01182 -11.8127,-18.84165 19.1022,20.98159 26.7437,24.14656 43.9066,54.5699 58.5993,85.3576 10.4703,23.5626 18.4264,48.5009 22.3528,73.6472 8.8138,56.4471 -2.8352,-6.6163 3.5476,27.1356 1.3154,5.3873 2.9434,10.7224 3.9462,16.1618 1.0261,5.5628 1.0297,11.2514 2.1311,16.8028 3.2116,16.179 2.919,7.2624 7.6039,21.0742 1.8043,5.3191 6.2743,25.1959 7.2111,29.2073 10.243,32.4539 19.6895,65.049 27.1609,98.0874 4.3926,22.8999 13.7637,44.7515 19.0311,67.4567 3.3826,14.5801 5.5302,29.3647 8.6875,43.984 7.618,45.885 8.619,92.4585 5.8306,138.7075 -0.303,6.8889 -0.6053,13.7781 -0.9085,20.667 -0.6869,17.101 -274.9375,8.5299 -274.2501,-8.571 l 0,0 c 0.3333,-6.4022 0.6664,-12.804 0.9996,-19.2059 0.5035,-34.2943 2.1959,-68.6105 -4.6839,-102.6096 -3.6825,-33.155 -7.3495,-66.2089 -18.9787,-98.1265 -8.3999,-30.9185 -14.6396,-62.2678 -23.99,-92.9301 -2.0075,-5.9385 -9.5885,-28.1604 -10.591,-32.2048 -5.4176,-21.8577 -6.6999,-44.3133 -8.4639,-66.5488 -3.5145,-18.5735 -8.1108,-37.0436 -12.2673,-55.3921 -11.7357,-14.9538 -26.8894,-28.1153 -37.3933,-44.1893 -11.5195,-11.4182 -18.8699,-24.9812 -35.3465,-31.7439 -3.5412,4.3104 -1.0033,2.4954 -11.0837,-2.3661 -13.9131,-6.7099 -27.284,-14.6298 -42.6712,-18.6181 -19.506,-7.8775 -40.03902,-15.6722 -61.36234,-18.3133 -5.55001,-1.5278 -11.09988,-3.0558 -16.64989,-4.5837 -3.30452,-0.5179 -6.68697,-0.7389 -9.91369,-1.5537 -17.36192,-4.3843 -34.16847,-10.73455 -52.05221,-13.58595 -10.75549,-2.15704 -21.72296,-5.91856 -32.55529,-7.35987 -9.68531,-1.28866 18.8918,21.66962 -12.90454,7.36813 -37.54407,4.90491 -77.17683,6.69919 -113.38957,-4.97378 -17.34678,-3.92771 45.6407,-220.26302 62.98741,-216.33543 z"
         id="path3192"
         style="fill:#280b0b;fill-opacity:0.95294118;fill-rule:evenodd;stroke:none" />
    </g>
    <g
       id="g4029"
       transform="matrix(-0.19633918,1.7951255,2.1005789,0.22180796,5360.9665,-4531.1759)"
       style="fill:#280b0b">
      <path
         inkscape:connector-curvature="0"
         d="m 3089.28,-542.98475 c -4.5776,-0.0297 -9.1714,0.24799 -13.7326,-0.0994 -8.9549,-0.67346 -19.4396,-2.93874 -28.2277,-4.65188 -0.3577,-0.0693 -12.6108,-2.77449 -15.3761,-2.55026 -0.3799,0.0297 0.1169,0.66457 0.1766,0.99712 21.5812,-0.55048 43.207,-0.31138 64.7436,-1.6529 1.2,-0.0793 2.3524,-1.4627 2.21,-2.51612 -0.1126,-0.80243 -1.7283,-0.7449 -2.641,-0.67247 -10.8519,0.85992 -22.6258,5.31519 -33.0488,7.77749 -36.9265,6.66638 -17.0241,3.88574 -87.3424,3.98356 -4.0258,0.007 -16.0223,-1.07429 -11.9994,-1.20889 21.7515,-0.72799 43.5419,0.0297 65.2984,-0.57527 0.4668,-0.0111 0.2699,-1.17653 -0.1933,-1.22286 -1.8784,-0.18757 -3.7495,0.42751 -5.6241,0.64073 1.3938,-0.96108 4.6552,-1.38103 4.1816,-2.88466 -0.4375,-1.38912 -3.0958,1.25734 -4.7265,1.1547 -0.5849,-0.0397 1.2906,-1.58737 0.7423,-1.40554 -7.8791,2.6119 -14.6022,7.40016 -22.1022,10.77016 -6.2472,2.80715 -12.6776,5.2855 -19.0164,7.92817 -3.1126,-5.22863 3.0423,3.77995 -8.1849,0.36217 -1.622,-0.49395 5.4814,-3.36515 3.8003,-3.06222 -5.7429,1.03459 -18.2063,9.65305 -25.1304,12.13437 -30.038,13.28195 -5.3141,3.7848 -6.9569,1.00712 -0.8525,-1.44153 -3.3083,1.48757 -5.088,1.91198 -0.4107,0.0993 0.013,-0.74983 0.021,-1.12516 -3.2653,2.5106 -6.5305,5.02105 -9.7958,7.53161 -6.3992,4.73084 -15.3143,11.47125 -21.6477,15.1288 -0.6917,0.39971 -1.7175,0.24799 -2.4809,-0.0297 -0.3442,-0.12603 0.068,-1.15618 -0.2316,-0.96505 -5.7654,3.64453 -10.818,8.09439 -16.2463,12.12147 -5.0278,4.1483 -10.5535,8.03597 -14.9963,12.70976 -1.2818,1.34852 -1.1428,3.39343 -2.0572,4.95758 -1.7958,3.07175 -3.9533,5.96835 -5.93,8.95253 -17.7671,22.51676 -34.1733,45.851 -52.2782,68.16088 -13.5346,17.43284 -30.8759,31.92483 -44.8719,48.89806 -9.6479,13.65241 -12.825,30.03925 -18.3287,45.29626 -2.9972,6.54632 -5.6596,13.21978 -8.9915,19.63903 -4.8039,9.25494 -11.3144,17.7645 -16.2191,26.97818 -7.4339,13.96524 -14.5733,27.92792 -22.5105,41.72494 -8.2661,17.09889 -21.1326,32.55993 -28.9665,49.81533 -4.8758,10.73973 -8.8837,21.77278 -13.6264,32.55874 -12.8844,27.656427 -25.2331,55.493788 -37.1507,83.488914 -9.9817,32.9643137 -16.5495,66.388467 -30.2134,98.446707 -11.6308,27.927883 -22.481,56.048709 -33.2172,84.227249 -7.975,25.46158 -17.6706,50.50258 -26.6094,75.73504 -11.1329,20.1507 -13.7105,41.90573 -18.8524,63.43542 -4.3816,17.66067 -6.5401,35.72212 -5.4444,53.76864 0.2026,13.08141 3.5724,24.02902 14.2847,33.2943 11.1955,3.95332 15.8828,13.51433 23.2314,21.43672 0.388,0.41858 10.4704,7.90805 10.6244,8.02288 8.0925,5.11536 16.9599,15.64205 28.2485,14.57803 0.9392,-0.0893 1.6073,-0.87583 2.411,-1.31331 2.1151,10e-4 4.2303,0.002 6.3454,0.003 3.9419,0.73693 7.8179,1.84306 11.8259,2.20945 2.8644,0.26171 5.7662,-0.60107 8.6305,-0.33918 5.2438,0.47908 10.327,1.91249 15.5494,2.54785 4.2025,0.51181 8.4994,0.28951 12.6871,0.88773 23.7043,4.55416 12.4308,2.72578 33.7779,5.68676 22.5625,5.86967 45.2133,11.06049 68.0246,15.97938 28.7709,6.20413 8.3445,4.02245 32.9598,5.63557 -41.834,-1.41933 82.5714,-0.28283 40.9059,-2.52046 -16.2553,-0.87282 -32.5757,-0.0185 -48.8533,-0.46421 -5.6153,-0.15272 11.2319,-0.26578 16.8476,-0.40664 6.1108,-0.15384 12.2212,-0.32028 18.3318,-0.48005 16.9204,-2.05205 35.4321,-0.7092 51.9988,-5.12628 7.7636,-2.0697 14.8337,-5.79805 22.3738,-8.43309 4.193,-1.88035 8.5764,-3.46186 12.5791,-5.64095 4.6243,-2.5176 8.7431,-5.69789 13.2257,-8.40773 12.3341,-7.45662 25.7065,-13.8947 36.2536,-23.42795 4.7344,-4.27933 9.0874,-8.87439 13.631,-13.31164 17.4117,-17.3497 36.2535,-33.74787 57.2301,-47.77053 13.3195,-8.90394 27.872,-15.0766 41.452,-23.42895 19.4679,-10.59257 32.7357,-27.21657 44.7007,-44.02999 20.7258,-24.89729 40.1641,-50.53064 62.2855,-74.50862 18.4734,-20.40958 34.4175,-42.48396 50.2395,-64.54618 16.7078,-24.190606 29.4821,-50.258968 43.6217,-75.701497 14.844,-28.675746 29.5432,-57.657496 41.0589,-87.530899 7.2287,-23.328196 23.2329,-45.820861 24.6961,-70.312014 0.4634,-13.6648 4.2245,-27.09536 5.7865,-40.61514 1.7711,-15.32815 1.9584,-30.34414 4.8766,-45.65413 3.4415,-13.33414 7.455,-53.97029 19.1833,-63.14857 0.1429,0.76669 0.2846,1.53379 0.4263,2.30071 0.7108,-14.67006 235.9727,-5.80768 235.262,8.86234 l 0,0 c -0.09,4.79979 -0.1812,9.59965 -0.2711,14.39939 -1.4292,20.0194 -4.674,39.65128 -7.7208,59.42357 -1.5158,29.19845 -2.8894,58.52468 -7.4566,87.496574 -6.6072,39.697794 -14.9855,79.193044 -31.5363,116.763605 -17.6818,34.254495 3.4165,-7.912194 -15.6474,35.609176 -9.3979,21.454478 -22.7604,41.448365 -32.9448,62.596395 -16.9827,33.49585 -33.1765,67.4281 -56.3206,98.12414 -6.2234,8.37659 -13.018,16.42446 -19.0006,24.93639 -3.7987,5.40478 -6.7217,11.27734 -10.7198,16.56903 -3.2714,4.32975 -7.5215,8.02436 -11.0248,12.21058 -37.1777,44.42463 9.4128,-8.98585 -24.0975,29.08677 -4.3947,4.54327 -9.6767,8.45136 -13.5381,13.35694 -14.3223,18.19538 -25.7132,38.41224 -43.6516,54.33012 -23.5906,23.03205 -43.9192,48.52644 -66.6703,72.19119 -2.5481,2.30008 -27.9782,25.30593 -31.0577,27.89177 -18.1922,15.27589 -40.0059,27.04317 -57.2146,43.35353 -24.5276,18.57586 -46.8251,39.62328 -72.2104,57.32117 -6.8786,4.79548 -14.3432,8.89885 -21.4691,13.40483 -7.2219,4.56669 -14.3822,9.20845 -21.5734,13.8127 -8.599,4.82206 -16.8313,10.19512 -25.7972,14.46611 -8.9677,4.272 -18.5886,7.37896 -27.8676,11.0983 -34.9543,14.01098 -68.3292,23.59947 -106.7454,26.92139 -69.9455,5.56674 -142.3646,8.94378 -210.2824,-9.05002 -30.9462,-8.81775 -62.3332,-16.47929 -94.6947,-19.90771 -38.3842,-7.35764 -76.9867,-14.7263 -112.4404,-30.29317 -15.6478,-6.94473 -27.152,-11.52003 -41.8591,-20.41225 -19.9563,-12.06605 -36.3184,-27.6631 -53.8205,-42.15401 -16.0869,-14.18217 -8.0968,-6.76102 -23.9148,-22.30958 -1.8392,-1.62621 -4.3088,-2.62463 -6.1535,-4.24598 -16.6165,-14.60519 -30.6674,-31.57445 -42.3265,-49.46869 -3.7724,-7.04938 -8.0241,-13.91427 -11.317,-21.14792 -13.1922,-28.97964 -19.4924,-61.11925 -21.9144,-92.06286 -1.7275,-34.81787 -2.4398,-69.64111 8.5498,-103.54779 7.6373,-25.92791 13.3998,-52.46308 24.4377,-77.48306 2.2623,-6.25025 5.3381,-12.2769 7.2213,-18.62427 5.3502,-18.03358 6.5205,-37.25585 16.1537,-54.212802 7.8889,-28.522985 17.6912,-56.532716 27.0488,-84.6291136 8.1884,-34.0284864 21.238,-66.9947654 35.2021,-99.4756644 9.4464,-36.2511 19.9645,-72.66022 39.2506,-106.01231 16.8,-30.13459 31.2979,-61.0414 49.4998,-90.58392 8.2217,-14.73186 16.2955,-29.45616 24.8515,-44.04367 5.14,-8.76367 9.3941,-17.95893 15.2288,-26.37756 1.9377,-2.79569 4.6252,-5.12895 6.9379,-7.69337 10.5717,-8.07701 12.2791,-24.04708 17.5063,-34.94324 6.7633,-14.09824 15.4763,-28.03015 25.7119,-40.36577 12.7735,-16.88882 22.9097,-35.20365 38.6895,-50.27239 15.6201,-21.23829 30.6316,-42.82818 46.4094,-63.98103 20.1585,-26.2113 42.2004,-51.11981 71.9291,-69.44093 2.9646,-1.89678 6.3231,-3.34513 9.0297,-5.52115 5.0345,-4.04736 17.6161,-15.80211 23.6761,-19.54947 0.496,-0.30656 0.9504,0.66268 1.4257,0.99392 2.6238,-1.60137 5.2475,-3.20271 7.8713,-4.80408 10.2815,-4.63679 0.6827,0.0663 17.8739,-12.16432 9.5494,-6.7935 11.5559,-7.77137 20.4569,-13.00938 19.0974,-11.23835 10.69,-9.85657 22.4764,-10.87333 3.6715,-1.4005 7.3429,-2.80103 11.0143,-4.20157 -0.5163,0.97343 -2.6373,2.43772 -1.5486,2.92014 0.6175,0.27356 31.612,-15.46913 36.4665,-17.92323 -1.0022,1.167 -2.6235,2.07656 -3.0057,3.50093 -0.8469,3.1547 7.0594,-2.00687 10.2091,-3.67849 16.0685,-8.52802 31.754,-16.72427 49.4871,-22.50953 9.0254,-2.10714 17.7123,-5.91537 27.0262,-6.48545 27.0814,-1.65754 54.2767,-1.20912 81.4075,-2.02244 1.2667,-0.0378 5.0215,-0.55148 3.7543,-0.53064 -19.1009,0.31397 -38.2273,0.30693 -57.2907,1.41058 -0.7176,0.0415 0.1395,1.26264 0.2081,1.89392 1.4539,3.98301 8.1711,0.73774 10.9791,-0.11936 40.8822,-12.48064 60.5442,-18.49509 114.3008,-12.61401 45.9667,4.38246 93.3357,12.42336 127.9542,41.65314 13.5559,8.91524 -129.4168,177.97508 -142.9727,169.05983 z"
         id="path3208"
         style="fill:#280b0b;fill-opacity:0.95294118;fill-rule:evenodd;stroke:none" />
      <path
         inkscape:connector-curvature="0"
         d="m 2583.9393,1397.5163 c -2.2901,-1.6432 -5.2973,-2.7262 -6.8702,-4.9296 -3.0997,-4.3423 -4.5131,-9.4588 -6.7754,-14.1862 -6.1079,-12.7633 -10.337,-25.827 -13.7772,-39.3257 -5.0246,-12.0023 -3.1147,-26.0082 -8.1865,-37.9386 -0.829,-1.9496 3.271,5.5649 1.0156,6.182 -2.2532,0.6169 -2.0622,-3.7424 -3.0934,-5.6135 -1.6445,-4.1375 -2.8865,-8.4169 -4.9333,-12.4123 -0.2846,-0.5564 -1.5168,-0.2966 -1.851,-0.8312 -1.3851,-2.9258 -2.7702,-5.8515 -4.1553,-8.7773 -0.7154,-0.4324 -1.7081,-0.6377 -2.1446,-1.298 -4.0768,-6.1706 -7.3663,-16.1751 -9.7746,-22.4269 -7.637,-16.9279 -13.2284,-34.793 -17.9125,-52.5628 -7.0367,-14.8333 -11.1552,-31.857 -19.1779,-46.7783 -9.6838,-26.2892 -14.861,-53.7978 -20.7174,-80.9248 -7.6486,-26.3272 6.6454,-53.9335 3.2827,-79.6414 -1.7366,-22.35239 -1.3175,-45.02599 -0.433,-67.45386 0.2081,-18.5601 3.4162,-37.23105 2.5103,-55.78151 -3.9488,-27.94687 -2.896,-56.13064 2.1972,-83.8943 -0.1745,-9.85868 4.7801,-19.14398 6.2392,-28.71753 2.0503,-13.45231 3.0891,-26.31323 6.39,-39.61683 5.416,-13.19269 5.104,-27.38612 7.3311,-41.00332 1.563,-9.55609 4.1072,-18.96735 6.0758,-28.46501 -1.6279,-6.22564 6.755,-15.39421 7.531,-21.06233 1.5653,-19.59614 0.4431,-10.4371 3.0977,-27.50178 3.4961,-26.67492 12.5108,-52.16185 21.5891,-77.64712 7.3686,-14.75662 14.6737,-29.07142 17.6865,-44.98455 0.6467,-2.72934 1.0437,-5.51407 1.9387,-8.18821 9.4595,-28.2542 4.0568,-9.6746 10.7781,-27.9515 3.9791,-10.82017 6.3987,-21.42582 10.269,-32.29659 5.0336,-10.96144 9.3185,-22.30421 16.3136,-32.46652 0.6614,-0.96008 1.951,-1.5444 2.4732,-2.56887 1.8456,-3.62014 2.7018,-7.57279 4.1334,-11.33587 8.7908,-17.06949 16.6739,-33.95583 22.5982,-51.91972 10.5322,-23.27552 20.0355,-46.5853 32.9673,-68.99215 11.1724,-13.74575 18.601,-28.33842 27.353,-43.41591 10.8909,-14.0552 19.7307,-28.90527 27.2717,-44.51837 10.4403,-26.55726 32.1789,-47.02182 52.2394,-68.099675 1.3637,-0.778631 3.0787,-1.21582 4.0909,-2.3363 2.7487,-3.042425 4.5671,-6.657785 6.9779,-9.91532 10.1949,-13.776114 19.5015,-27.829206 30.3875,-41.171392 15.6746,-17.288015 27.61,-36.9499549 43.9401,-53.873583 5.1779,-5.366011 11.2232,-10.030864 16.8349,-15.04624 28.2785,-22.673672 62.8574,-36.588349 99.146,-46.104549 11.4219,0.787527 24.4588,-6.033213 35.7585,-8.013949 0.8053,-0.140861 1.5287,0.526674 2.2932,0.789529 4.0235,-1.358535 8.0471,-2.717182 12.0707,-4.075792 5.6629,-0.393782 3.6598,-0.03966 12.1436,-2.954942 26.8707,-9.226577 44.2194,-13.576537 73.0369,-16.347657 7.2456,-27.86909 86.5083,12.58884 113.4172,7.01246 11.3849,-4.38861 3.7271,-2.42593 26.0374,1.74061 8.7983,1.64311 17.8093,2.698016 26.2983,5.317003 9.4534,2.916428 23.0437,8.643785 32.718,12.600958 22.5985,6.001778 43.8388,13.861483 64.2869,24.302291 9.7477,-0.268749 1.9215,-0.658602 17.2471,4.82892 20.0522,7.180011 27.2964,11.085509 44.6579,23.125874 11.5372,7.133082 19.8802,18.000664 30.9983,25.4440859 1.5209,1.0182438 3.8029,0.6229047 5.514,1.3706572 6.5742,2.8725753 14.6386,8.6509023 20.2524,12.3676461 24.0147,20.8432128 40.827,45.4858328 53.6814,72.6165878 2.2636,4.216135 4.842,8.311796 6.7906,12.648553 19.319,42.995884 2.9195,12.211844 4.6708,9.090574 0.8773,-1.56375 2.2164,2.89156 3.3841,4.29999 2.37,2.85849 4.8182,5.66604 7.2274,8.49895 13.0628,10.34936 25.8451,42.53316 27.2113,45.21464 19.8784,23.07546 23.8109,52.24656 30.8693,79.67446 3.8598,18.04533 7.5067,35.96426 9.2815,54.38669 2.2543,8.57194 -0.9616,17.32115 0.1349,25.90033 0.151,1.17656 0.1711,-3.41612 1.5069,-3.2942 1.4222,0.13011 4.6615,19.11432 4.9748,21.02392 2.5644,21.57481 1.8616,43.32528 1.7518,64.98189 -0.9246,22.08491 -1.2344,43.80147 -5.7309,65.63049 -4.7091,15.20949 -9.1378,34.95128 -16.7742,46.8133 -3.3574,16.47373 -5.1984,34.86647 -15.1069,49.54146 -0.4476,0.14865 0.1269,-4.36978 -0.1013,-3.29145 -3.4923,16.1999 -7.6386,32.16092 -11.3503,48.32075 -3.1052,16.92311 -12.2665,32.13401 -19.3095,47.80326 -7.9972,19.27213 -17.8963,37.76703 -28.3933,56.07329 -6.9079,6.70423 -8.9031,12.94484 -14.5397,25.85881 -8.9808,20.37537 -20.3303,39.82327 -32.2701,58.94838 -6.5877,9.154 -14.1793,17.53204 -22.3991,25.49869 -2.2053,2.13742 -3.7651,4.80808 -6.251,6.69089 -0.9583,0.72603 2.5234,-3.70466 1.4796,-3.07701 -1.3222,0.79546 -1.6218,2.4333 -2.4327,3.65002 0.478,-0.89069 1.8323,-3.59368 1.4335,-2.67304 -7.8996,18.23394 -19.4583,34.22732 -31.6716,50.33307 -3.5577,3.6006 -20.7703,23.76145 -28.3563,27.54503 -1.1958,0.59611 1.4952,-2.17609 1.4929,-3.38753 0,-0.68537 -1.0787,0.99896 -1.4964,1.57672 -1.6598,2.29326 -3.1497,4.67875 -4.7246,7.01813 -4.6266,6.95782 -9.8105,13.34871 -14.6227,20.17939 -8.0262,13.22004 -220.0342,-86.87708 -212.008,-100.09705 l 0,0 c 6.0236,-7.55263 10.5194,-16.64728 18.8302,-22.37868 9.948,-10.63809 17.4543,-22.75504 27.4619,-33.34509 1.6516,-1.74776 2.5684,-4.11957 4.6633,-5.44726 1.0123,-0.6417 -0.7052,2.10781 -1.0572,3.16175 4.272,-4.91385 7.4816,-10.54119 12.1012,-15.20397 1.3179,-1.33029 5.0132,0.82819 5.4848,-2.16482 3.3738,-3.90124 12.3623,-20.95501 12.76,-21.66892 11.7994,-15.47316 21.0097,-27.2364 26.6841,-34.83503 6.4313,-0.87483 14.5824,-26.30038 20.9042,-31.09023 7.5002,-14.67948 17.0906,-28.35955 23.8804,-43.4919 -0.5927,1.56156 -2.5076,6.20054 -1.7782,4.68469 3.3477,-6.95682 12.1948,-29.45405 16.2967,-33.49425 0.586,-0.57724 0.3993,1.50862 0.5995,2.2629 2.9586,-12.54976 5.6801,-27.70024 14.0179,-39.25749 0.5399,-0.74883 2.0744,-0.56534 2.6299,-1.30449 1.8275,-2.43238 2.8553,-5.26444 4.2831,-7.8967 3.7829,6.43541 3.398,-4.57767 1.6999,1.92399 -0.4036,1.54451 -1.082,6.22307 -1.1765,4.64027 -0.6681,-11.20798 1.1236,-21.19195 2.5321,-32.27298 2.4066,-10.93178 4.189,-23.07924 9.6915,-33.29667 0.3611,-0.6695 1.5204,-0.84309 1.8276,-1.53343 11.5026,-25.85481 -2.4419,0.49098 6.3875,-15.72178 4.7087,-18.71183 8.6856,-25.40542 11.223,-41.04006 0.351,-1.02536 0.1147,-2.39609 1.0538,-3.07612 0.5354,-0.38781 0.8054,2.24285 0.9268,1.64123 2.4869,-12.28525 -0.5117,-25.03578 1.6094,-37.36802 1.1656,-10.15616 3.0413,-19.55114 -0.3295,-29.60821 -2.9787,-16.21851 -5.2899,-32.93318 -4.6028,-49.08374 -7.5843,-14.67996 -9.773,-31.86467 -11.6187,-47.6316 0,-1.76507 0.2396,-3.54248 0,-5.29536 -0.4218,-3.14139 -1.6626,-6.17815 -1.9684,-9.32992 -0.1745,-1.80003 0.9717,3.51193 1.5714,5.23934 0.4657,1.3396 1.0944,2.63067 1.6199,3.95261 0.068,0.16459 0.2518,0.6566 0.1542,0.50585 -1.1392,-1.75321 -2.1902,-3.54983 -3.2853,-5.32476 -12.9043,-15.2354 -21.8283,-32.33566 -32.413,-48.71616 -7.4271,-15.80303 2.9371,5.3659 -7.996,-13.4578 -7.868,-13.54629 -10.3931,-18.9613 -15.9356,-32.18253 -0.4375,-1.04482 0.5129,2.93059 1.7771,2.95171 -0.3665,0.42255 -0.6501,1.62247 -1.1,1.26761 -2.8847,-2.27699 -4.5372,-5.58383 -7.3454,-7.93392 -0.3598,-0.30137 -0.4342,1.34953 -0.8335,1.08905 -4.5562,-2.97018 -7.189,-8.31398 -12.945,-10.04347 -9.2221,-8.12163 -17.5863,-16.44347 -25.9423,-25.26389 -0.8559,-0.90255 3.1583,2.5563 1.9617,3.07712 -1.1795,0.51377 -2.5824,-0.44334 -3.8736,-0.66553 1.0134,1.45654 4.9768,4.29661 3.0407,4.36971 -3.988,0.15087 -7.3029,-2.85705 -11.0513,-4.06731 -14.2476,-4.59979 -28.5966,-9.24838 -41.5184,-16.54096 -7.5723,-0.48601 0.045,0.28468 -13.5353,-3.76019 -11.4174,-3.40136 -22.5043,-7.809442 -34.052,-11.069424 -1.8496,-0.259853 -3.6994,-0.519742 -5.5491,-0.779595 0.2047,0.626834 1.3528,1.835019 0.6152,1.879539 -3.0607,0.184602 -6.0293,-1.020431 -9.0715,-1.369842 -19.5957,-2.250709 23.8519,7.413762 -15.826,-1.093012 -9.3423,-1.26034 -18.943,-3.172054 -28.4198,-3.458189 -3.1321,-0.09934 -12.393,1.289403 -9.2626,1.420923 19.0469,0.800427 38.128,0.729997 57.192,1.094494 -15.686,-10.515575 -22.1821,-1.769147 -40.2015,3.487659 -14.1375,0.507806 0.739,-0.689332 -21.2029,5.456347 -1.0235,0.28654 -2.1492,-0.38781 -3.2106,-0.24206 -13.027,1.78631 -24.604,8.72419 -37.4223,11.08907 -2.4945,0.0693 -5.8323,1.85266 -7.4832,0.20239 -1.2736,-1.27294 3.0658,-2.16192 4.0781,-3.60576 0.28,-0.39871 -0.1236,-1.34923 -0.6501,-1.28406 -2.1134,0.26171 -3.8115,2.00453 -5.9429,2.10077 -0.7153,0.0297 -0.4375,-1.20185 -0.6557,-1.80281 -1.8226,0.66157 -3.6451,1.32302 -5.4678,1.98459 -0.6039,-0.53857 -1.7367,-0.85992 -1.8127,-1.61435 -0.1879,-1.86178 2.8905,-4.53274 1.0932,-5.52388 -1.6658,-0.91846 -2.3113,2.80959 -3.2997,4.30699 -8.2962,12.56833 -14.4104,26.21004 -23.7838,38.25455 -9.312,10.16209 -17.7565,20.89874 -27.754,30.56919 -3.7871,3.66321 -7.3659,5.30966 -10.4494,9.70069 -2.7481,3.91343 -4.7206,8.21101 -7.0809,12.31657 -7.0243,9.82398 -13.0675,20.49587 -20.7384,29.91844 -7.4122,9.10481 -17.8338,16.27129 -25.9538,24.83226 -1.4149,0.36216 -3.3342,0.0693 -4.2447,1.08638 -2.9782,3.34083 -4.2527,7.64048 -6.7667,11.266 -0.5635,0.81232 -1.8135,1.12426 -2.3851,1.93184 -14.8435,20.97236 2.0514,-3.61262 -6.9897,12.61441 -7.3204,18.24628 -17.2632,35.67186 -27.7604,52.80637 -4.5217,4.39092 -1.962,1.46207 -6.5136,9.4904 -0.424,0.46618 -1.7077,-1.07188 -1.9477,-0.51277 -4.6448,10.81454 -4.8841,23.29806 -12.3604,33.2804 -6.4748,14.33848 -15.2429,27.64683 -22.8725,41.17814 -0.5118,0.90752 0.6715,-1.93807 1.0077,-2.90713 -6.3533,20.59545 -13.5464,40.96637 -21.4182,61.15684 -4.1398,7.78286 -7.3803,15.92325 -11.5636,23.68806 -0.9752,1.8107 -2.8126,3.18432 -3.8243,4.97968 -1.1994,2.1289 -1.6822,4.52439 -2.7585,6.70397 -0.478,0.96805 0.6377,-2.03586 0.9561,-3.05381 -0.8323,3.65162 -1.6645,7.30319 -2.4968,10.95481 -8.0013,23.87181 -10.6573,49.20413 -21.1178,72.52769 -6.9541,12.23027 -3.7056,5.78089 -9.6055,19.40265 -0.956,1.75209 -2.792,3.04646 -3.7889,4.78043 -1.2361,2.14992 -1.4024,4.73755 -2.8568,6.77848 -0.3308,0.46418 -1.6255,-0.67546 -1.8554,-0.16569 -0.9436,2.09357 -0.7243,4.46064 -1.0876,6.69099 -3.9711,18.78234 2.6595,42.65218 -4.8462,62.31146 -3.4096,11.58668 -6.8886,23.07071 -10.3195,34.65272 -1.1808,3.98616 -3.9488,7.60512 -4.5469,11.69114 -0.5173,3.53592 -0.398,7.12185 -0.5983,10.68279 -0.6524,6.54295 -1.0123,12.10932 -2.3589,18.53828 -0.424,2.02477 -1.5627,3.93852 -1.6915,5.99444 -0.9122,14.56075 1.8998,29.43651 -2.3919,43.85699 -1.4776,9.49407 -1.6427,13.79198 -4.8164,22.71066 -0.5017,1.40955 -1.8927,2.53251 -2.1999,3.98476 -2.165,10.23292 -0.3859,20.89807 -3.0448,31.09281 -1.1981,16.72127 2.2604,33.63011 3.5211,50.29441 2.4237,27.57966 3.8035,55.77377 -0.5646,83.20355 -3.2004,16.1935 -3.5234,31.8062 -3.4675,48.1543 -0.5702,0.5475 -1.6376,0.9016 -1.7115,1.6424 -0.4746,4.7518 3.8492,8.9181 5.6026,13.4307 4.1133,10.5863 7.5183,21.4257 10.0073,32.3991 5.5467,19.6883 6.9707,38.0615 14.4195,56.8912 5.7385,11.3461 8.5057,23.5376 14.9252,34.6811 7.5186,12.5325 12.2467,26.872 16.2711,40.5689 0.09,0.3043 -0.4421,-0.494 -0.6625,-0.7409 1.8428,4.9609 7.0406,23.5101 11.3718,27.2686 0.9336,0.8103 0.5905,-2.2497 0.8863,-3.3747 1.7031,1.7084 3.4063,3.4166 5.1094,5.125 22.0462,31.8281 36.3205,67.0372 33.9048,104.8018 2.3255,14.6876 -233.2179,43.689 -235.5434,29.0014 z"
         id="path3210"
         style="fill:#280b0b;fill-opacity:0.95294118;fill-rule:evenodd;stroke:none" />
      <path
         inkscape:connector-curvature="0"
         d="m 3003.673,1224.9076 c -54.9185,16.0582 -115.9718,5.6487 -170.7384,-7.4083 -4.8708,0.9085 -9.0368,-3.6072 -13.8383,-3.5331 -0.8121,0.011 -2.8067,1.2189 -1.9944,1.2355 18.8632,0.3858 37.7371,-0.244 56.6047,-0.1179 5.6527,0.04 -11.2094,1.3419 -16.7553,2.3067 -11.7613,3.4647 -24.1784,2.5404 -36.2272,3.4636 -10.8033,0.8283 -21.4359,4.4573 -32.06,1.4625 -6.4953,14.8505 -8.6944,-0.5009 -12.9063,0.277 -4.404,0.8133 -16.7549,6.0242 -21.2505,7.6913 -18.1696,6.4841 -9.5327,3.3269 -25.9266,9.4378 -25.2776,6.6291 -48.1513,18.7637 -73.4689,25.1037 -21.3654,6.097 -40.1524,16.6838 -60.565,24.5577 -19.4365,7.0348 -35.1518,20.6114 -53.1059,30.2839 -4.5319,8.0969 -30.0819,10.7583 -37.5829,15.9194 -12.6397,9.0769 -38.9505,37.739 -53.211,41.3617 -10.2868,4.1055 -14.0226,16.2038 -23.0706,21.998 0.8041,-3.3267 -14.5966,17.4434 -14.3213,14.4439 0.2552,-2.7801 2.1017,-5.2855 2.6737,-8.0288 0.4149,-1.993 -1.4672,3.8408 -2.2008,5.7612 0.2792,1.0439 1.0461,-2.4282 0.9302,-1.7823 -2.971,16.5067 -8.0334,32.2652 -14.881,47.8447 -2.7219,2.5884 -12.8307,34.7262 -9.8272,16.1469 -1.0921,4.7868 -2.1853,9.5737 -3.2779,14.3606 -2.4702,14.4949 -234.9252,-16.3114 -232.4551,-30.8065 l 0,0 c -0.3149,0.967 -0.631,1.935 -0.9459,2.9024 2.46,-23.9558 6.0251,-38.3597 15.9527,-60.3079 1.7176,-3.7975 3.0195,-7.7309 4.5292,-11.5964 1.1,-2.0666 2.1992,-4.1332 3.2989,-6.1998 0.3035,0.6933 0.4296,2.6885 0.911,2.0788 1.4565,-1.8448 1.2669,-4.4028 2.4835,-6.3782 0.2026,-0.3284 0.9583,0.9582 1.0764,0.5981 1.529,-4.6698 2.2667,-9.5133 3.4001,-14.27 1.2327,-3.7105 2.4653,-7.421 3.6979,-11.1316 9.331,-21.8026 15.6464,-44.6869 32.1239,-63.5588 3.6105,-4.6069 6.8844,-9.4337 10.8315,-13.8207 12.549,-13.9475 31.8229,-26.9628 44.443,-41.2263 3.3156,-2.9128 6.2971,-6.155 9.9467,-8.7387 0.4331,-0.3065 1.0303,0.8917 1.5021,0.6338 7.9784,-4.3665 14.4324,-11.1275 22.3028,-15.7079 19.9786,-19.9807 41.2297,-39.6038 67.8181,-52.7957 22.2086,-12.8436 47.1079,-20.6829 67.9847,-35.1263 21.8297,-11.8179 44.1907,-22.8928 66.1213,-34.6811 27.2865,-13.9411 56.9018,-23.8191 87.2058,-31.5019 15.6437,-4.7405 32.0649,-8.7902 47.0724,-14.9733 6.7291,-2.7724 13.044,-6.2995 19.8343,-8.9533 4.7129,-1.8419 9.7317,-3.002 14.5975,-4.5031 7.1567,-2.4104 14.1445,-5.2544 21.4701,-7.2311 7.7435,-2.0894 27.221,-4.2294 34.4486,-5.1893 16.7688,-2.2271 31.8397,-4.6313 48.6346,-1.605 31.8022,1.8182 65.501,-0.7896 96.6234,-0.4018 13.7421,0.1717 27.6784,3.5896 41.5776,2.2408 9.4548,0.2747 18.8887,1.0553 28.3473,1.1989 4.0507,0.06 16.1965,-0.3195 12.1459,-0.3888 -105.0343,-1.7851 -42.4514,-2.1758 -19.0807,5.6639 16.2766,-3.6854 75.3785,199.3049 59.1019,202.9902 z"
         id="path3212"
         style="fill:#280b0b;fill-opacity:0.95294118;fill-rule:evenodd;stroke:none" />
      <path
         inkscape:connector-curvature="0"
         d="m 3038.9303,1037.074 c 21.4952,-5.6391 45.6895,-8.9953 68.1392,-5.5984 18.1599,2.7477 26.0443,6.1144 42.661,11.668 34.5047,12.8571 58.3067,36.7514 79.8538,62.5754 7.9407,9.5169 7.3138,12.6304 7.6312,7.0738 12.0288,-3.587 42.5888,32.8763 48.0018,39.111 13.2484,15.2172 24.4006,31.6712 36.1472,47.8059 4.7235,12.8938 13.5427,20.55 19.8388,33.2586 2.7759,5.603 4.9848,11.4115 7.4771,17.1172 6.6721,21.4858 7.0561,35.8865 10.5592,55.9292 0.034,-1.8646 -1.3515,-4.2481 0.1127,-5.5937 1.0595,-0.973 1.5041,2.3635 2.0204,3.6332 1.2659,3.113 2.3647,6.2817 3.3127,9.4814 4.0894,13.8028 5.7101,27.4602 6.8191,41.6455 0.9706,17.7957 -2.0607,35.4359 -3.3765,53.1396 -0.4094,7.0895 -0.1248,14.1889 0.1013,21.2786 0.3094,14.7838 -236.7766,18.6448 -237.0863,3.861 l 0,0 c -0.2307,-11.494 -0.4229,-22.9942 0.1123,-34.4851 0.5905,-11.283 1.4007,-22.5537 2.4425,-33.8116 2.4507,-11.1379 -12.1452,-23.5521 -7.7872,-34.6372 -0.9223,-9.8725 -4.6336,-19.6526 -6.0907,-29.4984 -0.6321,-4.2677 4.0847,19.3839 3.7199,12.488 0.7063,1.6219 1.599,3.1898 2.1185,4.8657 0.1127,0.3492 -0.6444,-0.4711 -0.8536,-0.7835 -4.9797,-7.4517 -13.0797,-19.3429 -17.1955,-25.4093 -2.7735,-4.4373 -4.8913,-9.7412 -11.5305,-13.5664 -0.604,-0.3481 -1.6192,0.252 -2.1552,-0.1746 -3.6274,-2.8806 -6.6486,-6.3046 -9.9729,-9.457 -0.8086,-0.5148 -1.477,-1.2741 -2.426,-1.5459 -0.3993,-0.1142 -0.766,0.7528 -1.1056,0.5346 -14.724,-9.4769 -26.0364,-23.1355 -38.4691,-34.6321 -3.8451,-4.4676 -7.7584,-8.8901 -11.5352,-13.4026 -1.0562,-1.2615 -1.8242,-2.7066 -2.9584,-3.914 -1.4735,-1.5683 1.4833,3.9982 3.0717,5.4765 4.7697,4.4388 17.2635,13.8398 23.623,18.6919 -1.7111,1.1211 -7.5906,5.1653 -9.4351,5.463 -21.211,3.4241 -44.793,0.5277 -64.8792,-5.5984 -16.2766,-3.6854 42.8253,-206.6756 59.102,-202.9903 z"
         id="path3214"
         style="fill:#280b0b;fill-opacity:0.95294118;fill-rule:evenodd;stroke:none" />
    </g>
    <rect
       style="fill:none;stroke:#160d0d;stroke-width:1;stroke-opacity:1;opacity:0"
       id="rect3098"
       width="7919.3672"
       height="4848.6504"
       x="-547.32794"
       y="-821.02045"
       rx="10.309597"
       ry="5.3479805" />
    <rect
       style="opacity:0;fill:none;stroke:#160d0d;stroke-width:2;stroke-linejoin:round;stroke-miterlimit:4.50000000000000000;stroke-opacity:0.99628252;stroke-dasharray:none;stroke-dashoffset:2.10000000000000009"
       id="rect4113"
       width="2485.7144"
       height="1320"
       x="-702.85712"
       y="-327.48657"
       transform="translate(-547.8125,-821.53125)"
       rx="10.309597"
       ry="5.3479805" />
    <rect
       style="opacity:0;fill:#e02424;stroke:#160d0d;stroke-width:2;stroke-linejoin:round;stroke-miterlimit:4.50000000000000000;stroke-opacity:0.99628254000000005;stroke-dasharray:none;stroke-dashoffset:2.10000000000000009;fill-opacity:0.98141265"
       id="rect4115"
       width="525.71429"
       height="411.42856"
       x="85.714287"
       y="-401.77228"
       transform="translate(-547.8125,-821.53125)"
       rx="10.309597"
       ry="5.3479805" />
    <rect
       style="opacity:0;fill:#0c0f0f;fill-opacity:0.98141263999999995;fill-rule:evenodd;stroke:#f61c1c;stroke-width:1;stroke-linejoin:round;stroke-miterlimit:4;stroke-opacity:0.99628254000000005;stroke-dasharray:none;stroke-dashoffset:0"
       id="rect4133"
       width="8022.8569"
       height="4954.2856"
       x="-484.95532"
       y="-926.16064"
       rx="168.99939"
       ry="18.326874" />
    <path
       sodipodi:type="arc"
       style="opacity:0;fill:#0c0f0f;fill-opacity:0.98141264;fill-rule:evenodd;stroke:#f61c1c;stroke-width:1;stroke-linejoin:round;stroke-miterlimit:4;stroke-opacity:0.99628254;stroke-dasharray:none;stroke-dashoffset:0"
       id="path4135"
       sodipodi:cx="885.71429"
       sodipodi:cy="-136.058"
       sodipodi:rx="560"
       sodipodi:ry="300"
       d="m 1445.7143,-136.058 a 560,300 0 0 1 -560.00001,300 560,300 0 0 1 -560,-300 560,300 0 0 1 560,-300 560,300 0 0 1 560.00001,300 z"
       transform="translate(-547.8125,-821.53125)" />
    <path
       sodipodi:type="arc"
       style="opacity:0;fill:#0c0f0f;fill-opacity:0.98141264;fill-rule:evenodd;stroke:#f61c1c;stroke-width:1;stroke-linejoin:round;stroke-miterlimit:4;stroke-opacity:0.99628254;stroke-dasharray:none;stroke-dashoffset:0"
       id="path4137"
       sodipodi:cx="2600"
       sodipodi:cy="-107.48657"
       sodipodi:rx="537.14288"
       sodipodi:ry="294.28571"
       d="M 3137.1429,-107.48657 A 537.14288,294.28571 0 0 1 2600,186.79913 537.14288,294.28571 0 0 1 2062.8571,-107.48657 537.14288,294.28571 0 0 1 2600,-401.77228 a 537.14288,294.28571 0 0 1 537.1429,294.28571 z"
       transform="translate(-547.8125,-821.53125)" />
    <path
       sodipodi:type="arc"
       style="opacity:0;fill:#0c0f0f;fill-opacity:0.98141264;fill-rule:evenodd;stroke:#f61c1c;stroke-width:1;stroke-linejoin:round;stroke-miterlimit:4;stroke-opacity:0.99628254;stroke-dasharray:none;stroke-dashoffset:0"
       id="path4139"
       sodipodi:cx="265.71429"
       sodipodi:cy="372.51343"
       sodipodi:rx="105.71429"
       sodipodi:ry="528.57141"
       d="M 371.42858,372.51343 A 105.71429,528.57141 0 0 1 265.71429,901.08484 105.71429,528.57141 0 0 1 160.00001,372.51343 105.71429,528.57141 0 0 1 265.71429,-156.05798 105.71429,528.57141 0 0 1 371.42858,372.51343 Z"
       transform="translate(-547.8125,-821.53125)" />
    <rect
       style="opacity:0;fill:#0c0f0f;fill-opacity:0.98141264;fill-rule:evenodd;stroke:#f61c1c;stroke-width:1;stroke-linejoin:round;stroke-miterlimit:4;stroke-opacity:0.99628254;stroke-dasharray:none;stroke-dashoffset:0"
       id="rect3085"
       width="554.28571"
       height="960"
       x="-234.28572"
       y="-338.91519"
       transform="translate(-547.8125,-821.53125)"
       rx="168.99939"
       ry="18.326874" />
    <rect
       style="opacity:0;fill:#0c0f0f;fill-opacity:0.98141264;fill-rule:evenodd;stroke:#f61c1c;stroke-width:1;stroke-linejoin:round;stroke-miterlimit:4;stroke-opacity:0.99628254;stroke-dasharray:none;stroke-dashoffset:0"
       id="rect3087"
       width="1657.1428"
       height="80"
       x="537.14288"
       y="318.22769"
       transform="translate(-547.8125,-821.53125)"
       rx="168.99939"
       ry="18.326874" />
  </g>
</svg>
